<?xml version="1.0" standalone="no"?>
<!DOCTYPE svg PUBLIC "-//W3C//DTD SVG 20010904//EN"
 "http://www.w3.org/TR/2001/REC-SVG-20010904/DTD/svg10.dtd">
<svg version="1.0" xmlns="http://www.w3.org/2000/svg"
 width="500.000000pt" height="500.000000pt" viewBox="0 0 500.000000 500.000000"
 preserveAspectRatio="xMidYMid meet">

<g transform="translate(0.000000,500.000000) scale(0.100000,-0.100000)"
fill="#000000" stroke="none">
<path d="M3197 4325 c-170 -33 -312 -107 -433 -229 -166 -167 -302 -444 -312
-636 -4 -80 -1 -93 42 -219 43 -128 52 -149 59 -140 2 2 23 56 47 119 59 159
194 465 253 580 120 228 231 347 372 396 62 22 232 23 285 2 70 -28 119 -58
164 -103 57 -57 91 -115 121 -203 22 -65 23 -67 59 -70 l36 -3 -6 183 c-3 101
-7 188 -9 194 -4 13 -97 58 -175 86 -147 51 -361 70 -503 43z"/>
<path d="M1110 4257 l0 -44 69 -12 c81 -15 116 -42 128 -100 5 -20 8 -385 8
-811 0 -669 -2 -779 -15 -805 -18 -37 -77 -67 -142 -73 l-48 -5 0 -43 0 -44
536 0 c358 0 542 4 555 11 11 5 24 21 29 35 14 35 40 207 42 272 2 84 -33 137
-48 75 -11 -43 -53 -114 -91 -154 -47 -49 -104 -76 -204 -95 -140 -27 -229
-11 -273 49 -21 28 -21 36 -24 765 -4 799 -1 856 44 891 14 11 56 25 95 32
l70 12 -3 41 -3 41 -362 3 -363 2 0 -43z"/>
<path d="M2887 3693 c-51 -125 -276 -664 -286 -688 -18 -40 -19 -53 -7 -76 6
-13 18 -40 26 -59 40 -101 62 -143 70 -129 6 11 89 295 140 479 5 19 18 67 29
105 24 87 77 308 86 357 7 38 -1 98 -14 98 -4 0 -24 -39 -44 -87z m4 -90 c-12
-20 -14 -14 -5 12 4 9 9 14 11 11 3 -2 0 -13 -6 -23z m-41 -124 c-17 -46 -72
-189 -123 -318 -71 -183 -93 -229 -100 -214 -8 18 32 129 103 288 10 22 39 92
65 155 26 63 54 132 63 154 30 71 23 20 -8 -65z"/>
<path d="M2150 3740 c-16 -40 -11 -72 48 -300 104 -397 209 -744 250 -825 8
-16 60 -75 116 -130 82 -81 109 -115 141 -180 37 -75 40 -85 37 -155 -8 -189
-7 -203 18 -254 48 -100 145 -166 243 -166 48 0 58 -4 105 -44 60 -52 127 -80
191 -80 40 -1 46 2 46 19 0 15 -12 24 -49 36 -61 20 -114 61 -122 95 -5 18 0
34 15 55 116 157 56 380 -123 454 -27 11 -64 16 -120 14 -44 -1 -91 1 -103 5
-25 8 -45 47 -123 236 -92 222 -217 510 -280 645 -9 18 -146 333 -230 528 -19
42 -37 77 -41 77 -3 0 -12 -14 -19 -30z m125 -270 c44 -102 128 -293 186 -425
59 -132 106 -241 105 -243 -5 -4 -64 28 -73 41 -10 14 -18 31 -102 247 -95
246 -211 563 -211 579 0 18 25 -36 95 -199z m289 -737 c8 -9 -65 -84 -76 -77
-15 9 -8 44 12 64 20 20 50 26 64 13z m36 -58 c0 -13 -7 -31 -16 -39 -15 -16
-74 -23 -74 -9 0 13 73 82 82 77 4 -3 8 -16 8 -29z m101 -176 c98 -239 98
-239 226 -239 95 0 164 -20 194 -56 7 -8 -12 -2 -42 13 -49 26 -61 28 -151 26
-141 -3 -145 1 -243 252 -80 205 -68 208 16 4z m343 -314 c75 -32 126 -110
126 -195 0 -162 -164 -235 -285 -128 -45 39 -66 82 -72 148 -12 137 107 227
231 175z"/>
<path d="M2760 2734 c-19 -48 -10 -99 37 -221 l47 -123 70 -29 c116 -48 275
-81 388 -81 147 0 337 49 505 130 l83 41 0 132 c0 94 -4 138 -13 151 -12 16
-16 12 -50 -42 -73 -118 -194 -212 -337 -263 -55 -19 -84 -23 -185 -22 -105 0
-129 4 -189 27 -38 14 -91 40 -118 57 -68 44 -153 140 -185 209 -16 33 -31 60
-36 60 -4 0 -12 -12 -17 -26z"/>
<path d="M2335 2464 c-70 -173 -93 -200 -159 -187 -103 20 -193 -6 -263 -76
-135 -134 -102 -367 63 -446 122 -58 272 -1 337 127 36 70 44 130 27 218 -22
118 19 225 133 347 l30 32 -40 44 c-23 24 -44 54 -48 66 -3 11 -10 21 -14 21
-5 0 -34 -66 -66 -146z m21 -54 c-60 -154 -101 -190 -193 -170 -56 13 -113 5
-167 -22 -21 -11 -35 -15 -31 -9 3 6 24 20 45 31 31 16 59 20 139 20 l100 0
28 35 c15 19 46 78 68 131 50 121 58 108 11 -16z m-176 -225 c68 -35 103 -125
86 -218 -13 -71 -117 -156 -190 -157 -45 0 -108 35 -136 76 -36 53 -39 143 -8
204 33 64 104 110 170 110 27 0 62 -7 78 -15z"/>
<path d="M1143 1361 c-48 -13 -120 -58 -147 -94 -55 -73 -71 -197 -39 -298 55
-170 288 -237 423 -122 l41 36 -27 28 -28 29 -25 -24 c-40 -37 -65 -46 -126
-46 -68 0 -119 25 -153 74 -85 125 -34 301 99 340 41 13 57 13 100 2 27 -7 63
-25 78 -40 l27 -26 27 28 27 28 -27 26 c-16 14 -44 34 -63 43 -38 20 -139 28
-187 16z"/>
<path d="M570 1080 l0 -280 170 0 170 0 0 35 0 35 -130 0 -130 0 0 245 0 245
-40 0 -40 0 0 -280z"/>
<path d="M1710 1081 l0 -281 143 0 c163 0 212 14 247 72 41 68 17 182 -45 210
l-25 11 35 39 c44 48 48 106 12 159 -37 55 -65 64 -224 67 l-143 3 0 -280z
m260 196 c34 -17 54 -60 43 -95 -14 -42 -65 -63 -148 -60 l-70 3 -3 69 c-2 38
-1 75 2 83 7 17 141 18 176 0z m-14 -226 c78 -2 112 -95 55 -152 -28 -28 -33
-29 -125 -29 l-96 0 0 88 c0 49 2 91 4 93 4 3 32 4 162 0z"/>
<path d="M2371 1338 c-9 -24 -199 -503 -208 -526 -4 -10 5 -13 38 -10 43 3 43
3 69 68 l26 65 127 3 127 3 11 -28 c6 -15 15 -37 20 -48 4 -11 11 -30 14 -42
5 -20 13 -23 52 -23 38 0 44 3 39 17 -4 9 -54 135 -113 280 l-105 263 -44 0
c-37 0 -46 -4 -53 -22z m108 -212 c23 -60 41 -110 41 -112 0 -2 -43 -4 -95 -4
-52 0 -95 3 -95 8 0 7 36 107 59 165 6 15 16 39 22 55 13 34 14 32 68 -112z"/>
<path d="M2760 1080 l0 -280 40 0 39 0 3 113 3 112 46 3 c42 3 49 0 68 -27 12
-16 21 -32 21 -36 0 -3 14 -26 30 -50 17 -24 30 -47 30 -50 0 -4 9 -20 21 -36
17 -25 27 -29 65 -29 24 0 44 2 44 4 0 2 -31 55 -69 117 l-70 113 37 21 c97
54 112 187 30 261 -38 35 -84 44 -214 44 l-124 0 0 -280z m250 197 c65 -22 79
-113 23 -157 -21 -16 -40 -20 -109 -20 l-84 0 0 88 c0 49 3 92 7 95 11 11 125
7 163 -6z"/>
<path d="M3260 1080 l0 -280 133 0 c147 0 196 10 231 45 71 71 50 213 -35 240
-17 6 -15 10 16 39 35 33 41 54 36 120 -4 43 -27 72 -75 96 -36 17 -62 20
-174 20 l-132 0 0 -280z m281 181 c11 -13 19 -37 19 -55 -1 -62 -42 -86 -151
-86 l-69 0 0 86 0 86 91 -4 c81 -4 94 -7 110 -27z m6 -222 c32 -17 48 -72 33
-110 -19 -45 -56 -59 -155 -59 l-85 0 0 89 c0 75 3 90 16 93 37 7 170 -2 191
-13z"/>
<path d="M3760 1080 l0 -280 180 0 180 0 0 35 0 35 -135 0 -135 0 0 90 0 89
113 3 112 3 3 33 3 32 -115 0 -116 0 0 85 0 85 130 0 130 0 0 35 0 35 -175 0
-175 0 0 -280z"/>
<path d="M4210 1079 l0 -280 43 3 42 3 1 85 c1 151 -3 142 51 138 l47 -3 63
-105 c35 -58 64 -109 66 -113 1 -5 24 -7 50 -5 l47 3 -70 115 -69 114 37 21
c97 54 112 187 30 261 -38 35 -84 44 -214 44 l-124 0 0 -281z m249 200 c63
-22 80 -102 31 -150 -28 -29 -32 -30 -112 -27 l-83 3 -2 80 c-1 44 0 86 2 93
6 15 119 16 164 1z"/>
</g>
</svg>
